<svg id="Group_199" data-name="Group 199" xmlns="http://www.w3.org/2000/svg" width="53.543" height="48.173" viewBox="0 0 53.543 48.173">
  <path id="Subtraction_1" data-name="Subtraction 1" d="M24.087,48.173a24.093,24.093,0,0,1-9.376-46.28,24.127,24.127,0,0,1,23.105,2.4,24.163,24.163,0,0,1,8.707,11.014h0c-.151-.006-.3-.01-.442-.01a8.011,8.011,0,0,0-.83.041,6.116,6.116,0,0,1-.3-.761c-.045-.124-.081-.222-.092-.247-1.317-3.213-4.376-4.472-6.711-4.962A8.66,8.66,0,0,1,41.124,11.3a10.034,10.034,0,0,1,2.557,5.47c.014.1.028.208.043.311.043.307.088.625.107.936A5.274,5.274,0,0,1,47,16.655h0A24.079,24.079,0,0,1,24.087,48.173Zm6.361-21.324.011,0a21.487,21.487,0,0,1,4.305,2,17.278,17.278,0,0,1,3.427,2.763,10.48,10.48,0,0,1,1.51,1.987,15.8,15.8,0,0,1,1.554,5.137c.009-.31.028-.625.046-.93.031-.526.064-1.069.048-1.608a22.042,22.042,0,0,0-.263-2.719,9.415,9.415,0,0,0-2.138-4.7,8.716,8.716,0,0,0-2.086-1.837c-.225-.124-.468-.242-.7-.356-.3-.144-.606-.294-.869-.452a12.3,12.3,0,0,0,1.635-7.971A10.844,10.844,0,0,0,34.262,12.4a13.922,13.922,0,0,0-4.3-3.039h0a10.741,10.741,0,0,1,2.212,2.461,9.972,9.972,0,0,1,1.422,3.7,16.436,16.436,0,0,1-.02,6.22,7.6,7.6,0,0,1-3.13,5.1ZM21.11,28.655h0a4.059,4.059,0,0,1,2.167.57A2.965,2.965,0,0,1,24.462,30.7a5.777,5.777,0,0,1,.364,2.187v5.483h5.639V32.884a14.216,14.216,0,0,0-.213-2.739,5.527,5.527,0,0,0-.771-2.011,3.684,3.684,0,0,0-1.529-1.3,6.944,6.944,0,0,0-2.462-.608v-.157a7.7,7.7,0,0,0,2.457-.733,4.436,4.436,0,0,0,1.529-1.247,5.045,5.045,0,0,0,.827-1.717,10.21,10.21,0,0,0,.332-2.112c.048-.738.069-1.565.063-2.456a14.9,14.9,0,0,0-.483-4.16,5.962,5.962,0,0,0-1.554-2.682A6.3,6.3,0,0,0,25.91,9.512,17.162,17.162,0,0,0,21.812,9H6.817V38.367h5.639V28.661H21.11v0Zm18.2-4.337c.321,0,.644.023.957.044.129.009.252.018.369.024a16.292,16.292,0,0,1,6.241,1.592,11.378,11.378,0,0,1,1.147.7l.006.006c.049-.488.088-1,.113-1.517l-.006-.006a12.514,12.514,0,0,0-4.136-2.933,15.973,15.973,0,0,0-2.3-.719c-.04,0-.062.008-.066.023a17.255,17.255,0,0,0,.263-3.358,9.113,9.113,0,0,0-2.5-5.713,13.041,13.041,0,0,0-5.55-3.166A9.108,9.108,0,0,1,37.207,12.2,11.941,11.941,0,0,1,39.2,17.257a10.529,10.529,0,0,1,.107,1.472v.2a16.99,16.99,0,0,1-.139,2.676c-.083.5-.18.992-.288,1.448-.061.264-.123.5-.189.733a2.12,2.12,0,0,1-.206.608A3.876,3.876,0,0,1,39.315,24.318Zm-19.287-.475H12.456V13.823h7.984a11.514,11.514,0,0,1,2.3.182,2.7,2.7,0,0,1,1.453.7,2.851,2.851,0,0,1,.7,1.485,13.184,13.184,0,0,1,.175,2.519,11.627,11.627,0,0,1-.219,2.62,3.053,3.053,0,0,1-.8,1.561,3.189,3.189,0,0,1-1.585.758A12.531,12.531,0,0,1,20.028,23.843Z" transform="translate(0 0)" fill="#fff"/>
  <path id="Path_24" data-name="Path 24" d="M8185,8771a19.618,19.618,0,0,1,7.018,2.211,15.531,15.531,0,0,0-6.536-.865C8185.333,8771.89,8185.177,8771.445,8185,8771Zm1.622,9.851a9.69,9.69,0,0,1,2.212,3.791,4.463,4.463,0,0,0-1.392-1.56,11.253,11.253,0,0,0-.933-.709Q8186.594,8781.62,8186.623,8780.851Z" transform="translate(-8138.475 -8755.691)" fill="#fff" fill-rule="evenodd"/>
</svg>
