<svg id="Group_199" data-name="Group 199" xmlns="http://www.w3.org/2000/svg" width="57.199" height="51.463" viewBox="0 0 57.199 51.463">
  <path id="Subtraction_1" data-name="Subtraction 1" d="M25.732,51.463A25.738,25.738,0,0,1,15.716,2.022,25.774,25.774,0,0,1,40.4,4.586a25.813,25.813,0,0,1,9.3,11.766H49.7c-.162-.007-.321-.01-.472-.01a8.557,8.557,0,0,0-.887.044,6.533,6.533,0,0,1-.323-.813c-.048-.132-.087-.237-.1-.264-1.407-3.432-4.675-4.777-7.169-5.3a9.251,9.251,0,0,1,3.186,2.068,10.719,10.719,0,0,1,2.732,5.843c.015.111.03.222.046.333.046.328.094.668.114,1a5.634,5.634,0,0,1,3.387-1.46h0A25.723,25.723,0,0,1,25.732,51.463Zm6.8-22.781.011,0a22.954,22.954,0,0,1,4.6,2.14A18.458,18.458,0,0,1,40.8,33.778,11.2,11.2,0,0,1,42.413,35.9a16.882,16.882,0,0,1,1.66,5.488c.01-.332.03-.668.049-.993.033-.562.068-1.142.051-1.718a23.547,23.547,0,0,0-.281-2.905,10.058,10.058,0,0,0-2.284-5.02A9.311,9.311,0,0,0,39.38,28.79c-.241-.132-.5-.258-.751-.38-.318-.154-.647-.314-.929-.483a13.145,13.145,0,0,0,1.747-8.515A11.584,11.584,0,0,0,36.6,13.247,14.872,14.872,0,0,0,32.011,10h0a11.475,11.475,0,0,1,2.363,2.629,10.653,10.653,0,0,1,1.519,3.956,17.559,17.559,0,0,1-.022,6.645,8.124,8.124,0,0,1-3.344,5.45Zm-9.975,1.929h0a4.336,4.336,0,0,1,2.315.609,3.168,3.168,0,0,1,1.265,1.573,6.172,6.172,0,0,1,.389,2.336v5.857h6.024V35.13a15.186,15.186,0,0,0-.227-2.926,5.9,5.9,0,0,0-.823-2.149,3.935,3.935,0,0,0-1.634-1.385,7.418,7.418,0,0,0-2.631-.649v-.168a8.225,8.225,0,0,0,2.624-.783,4.739,4.739,0,0,0,1.633-1.332,5.39,5.39,0,0,0,.883-1.835,10.907,10.907,0,0,0,.355-2.256c.051-.789.074-1.671.067-2.624a15.916,15.916,0,0,0-.515-4.445,6.369,6.369,0,0,0-1.66-2.865,6.728,6.728,0,0,0-2.938-1.553A18.334,18.334,0,0,0,23.3,9.619H7.283V40.987h6.024V30.618h9.245v-.005ZM42,25.979c.343,0,.688.024,1.023.048.137.01.269.019.394.026a17.4,17.4,0,0,1,6.667,1.7,12.155,12.155,0,0,1,1.226.743l.006.007c.053-.521.094-1.066.121-1.62l-.007-.006a13.369,13.369,0,0,0-4.418-3.133,17.063,17.063,0,0,0-2.46-.768c-.042,0-.066.008-.07.025a18.433,18.433,0,0,0,.281-3.588,9.736,9.736,0,0,0-2.666-6.1,13.932,13.932,0,0,0-5.929-3.382,9.73,9.73,0,0,1,3.581,3.106,12.757,12.757,0,0,1,2.13,5.4,11.248,11.248,0,0,1,.114,1.573v.214a18.15,18.15,0,0,1-.148,2.859c-.089.539-.192,1.06-.307,1.546-.066.282-.131.538-.2.783a2.265,2.265,0,0,1-.22.649A4.14,4.14,0,0,1,42,25.979Zm-20.6-.508H13.307v-10.7h8.53a12.3,12.3,0,0,1,2.456.194,2.885,2.885,0,0,1,1.552.75,3.046,3.046,0,0,1,.744,1.587,14.085,14.085,0,0,1,.187,2.691,12.421,12.421,0,0,1-.234,2.8,3.262,3.262,0,0,1-.857,1.667,3.407,3.407,0,0,1-1.693.81A13.387,13.387,0,0,1,21.4,25.471Z" transform="translate(0 0)" fill="#00205c"/>
  <path id="Path_24" data-name="Path 24" d="M8185,8771a20.954,20.954,0,0,1,7.5,2.361,16.6,16.6,0,0,0-6.982-.924C8185.355,8771.95,8185.188,8771.476,8185,8771Zm1.732,10.523a10.34,10.34,0,0,1,2.363,4.05,4.766,4.766,0,0,0-1.487-1.666,11.872,11.872,0,0,0-1-.758C8186.673,8782.613,8186.714,8782.071,8186.733,8781.523Z" transform="translate(-8135.298 -8754.646)" fill="#fff" fill-rule="evenodd"/>
</svg>
